<svg xmlns="http://www.w3.org/2000/svg" width="1800" height="1380" viewBox="0 0 1800 1380" role="img" aria-labelledby="title desc">
<title id="title">Golden Case Red-Team Validation V1</title>
<desc id="desc">Article-specific Coverage, Technology and Narrative judges connected to AutoResearch Steps 3 through 9, with validated forward profiles and earliest-root-cause repair routing.</desc>
<metadata>Editable source: golden-case-red-team-architecture.drawio</metadata>
<defs>
 <filter id="s" x="-20%" y="-20%" width="140%" height="140%"><feDropShadow dx="0" dy="3" stdDeviation="4" flood-color="#0f172a" flood-opacity=".12"/></filter>
 <marker id="ad" markerWidth="10" markerHeight="8" refX="9" refY="4" orient="auto"><path d="M0 0L10 4L0 8Z" fill="#334155"/></marker>
 <marker id="ag" markerWidth="10" markerHeight="8" refX="9" refY="4" orient="auto"><path d="M0 0L10 4L0 8Z" fill="#16a34a"/></marker>
 <marker id="ar" markerWidth="10" markerHeight="8" refX="9" refY="4" orient="auto"><path d="M0 0L10 4L0 8Z" fill="#dc2626"/></marker>
 <marker id="ab" markerWidth="10" markerHeight="8" refX="9" refY="4" orient="auto"><path d="M0 0L10 4L0 8Z" fill="#2563eb"/></marker>
 <marker id="ao" markerWidth="10" markerHeight="8" refX="9" refY="4" orient="auto"><path d="M0 0L10 4L0 8Z" fill="#ea580c"/></marker>
 <marker id="ap" markerWidth="10" markerHeight="8" refX="9" refY="4" orient="auto"><path d="M0 0L10 4L0 8Z" fill="#9333ea"/></marker>
 <style>text{font-family:"PingFang SC","Microsoft YaHei","Noto Sans CJK SC",Arial,sans-serif;fill:#0f172a}.title{font-size:28px;font-weight:700}.h{font-size:18px;font-weight:700}.b{font-size:15px}.sm{font-size:13px}.lane{font-size:17px;font-weight:700}.lbl{font-size:13px;font-weight:600;paint-order:stroke;stroke:#fff;stroke-width:5px;stroke-linejoin:round}.dash{stroke-dasharray:8 6}</style>
</defs>
<rect width="1800" height="1380" fill="#fff"/>
<text x="900" y="42" text-anchor="middle" class="title">Golden Case Red-Team Validation · V1</text>
<rect x="70" y="75" width="390" height="92" rx="16" fill="#ecfdf5" stroke="#059669" stroke-width="3" filter="url(#s)"/><text x="265" y="108" text-anchor="middle" class="h" fill="#064e3b">隐藏 Golden Case</text><text x="265" y="137" text-anchor="middle" class="b" fill="#064e3b">范士雄等（2024）· 仅红队可见</text>
<path d="M460 121H515" stroke="#059669" stroke-width="2.5" marker-end="url(#ag)"/>
<rect x="520" y="75" width="690" height="92" rx="16" fill="#f0fdf4" stroke="#34a853" stroke-width="2.5"/><text x="865" y="107" text-anchor="middle" class="h" fill="#14532d">Frozen Gold Map Vault</text><text x="865" y="136" text-anchor="middle" class="b" fill="#14532d">Coverage C1–C6  ·  Technology T1–T6  ·  Narrative N1–N6</text>
<rect x="1270" y="75" width="460" height="92" rx="16" fill="#f8fafc" stroke="#475569" stroke-width="2.5" filter="url(#s)"/><text x="1500" y="107" text-anchor="middle" class="h">Red-Team Controller</text><text x="1500" y="135" text-anchor="middle" class="b" fill="#475569">触发 Judge · 汇总判定 · 最早根因回流</text>

<rect x="45" y="215" width="1710" height="300" rx="18" fill="#f8fbff" stroke="#bfdbfe" stroke-width="2"/><text x="75" y="248" class="lane" fill="#1e3a8a">A · Coverage Checkpoint · Step 4 完成后触发（Step 4 主导）</text>
<rect x="105" y="295" width="400" height="145" rx="14" fill="#fff" stroke="#94a3b8" stroke-width="2" filter="url(#s)"/><text x="305" y="330" text-anchor="middle" class="h">Step 3 文献导入</text><text x="305" y="360" text-anchor="middle" class="h">Step 4 文献卡片</text><text x="305" y="398" text-anchor="middle" class="b" fill="#475569">SourceTable + SourceCard · Snapshot A0</text>
<rect x="650" y="302" width="270" height="130" rx="16" fill="#dbeafe" stroke="#2563eb" stroke-width="3" filter="url(#s)"/><text x="785" y="340" text-anchor="middle" class="h" fill="#1e3a8a">Coverage Judge</text><text x="785" y="371" text-anchor="middle" class="b" fill="#1e3a8a">Pass / Partial / Fail</text><text x="785" y="400" text-anchor="middle" class="sm" fill="#1e3a8a">缺材料→3 · 卡片错误→4</text>
<rect x="1040" y="278" width="650" height="190" rx="16" fill="#dbeafe" stroke="#2563eb" stroke-width="2.5" filter="url(#s)"/><text x="1070" y="311" class="h" fill="#1e3a8a">Gold Coverage Map · C1–C6</text><text x="1070" y="343" class="b" fill="#1e3a8a">C1 研究问题与范围边界　　C2 全生命周期</text><text x="1070" y="374" class="b" fill="#1e3a8a">C3 数据侧知识覆盖　　　　C4 模型侧知识覆盖</text><text x="1070" y="405" class="b" fill="#1e3a8a">C5 学习与适应机制　　　　C6 应用条件与评价边界</text><text x="1070" y="442" class="sm" fill="#1e3a8a">判断：是否形成问题—流程—数据—模型—学习机制—应用边界的完整知识空间</text>
<path d="M505 350H643" stroke="#334155" stroke-width="2.5" marker-end="url(#ad)"/><text x="574" y="340" text-anchor="middle" class="lbl">冻结快照</text><path d="M1040 365H927" stroke="#2563eb" stroke-width="2.4" class="dash" marker-end="url(#ab)"/><text x="984" y="353" text-anchor="middle" class="lbl" fill="#2563eb">隐藏比对</text><path d="M650 410H510" stroke="#dc2626" stroke-width="2.2" class="dash" marker-end="url(#ar)"/><text x="580" y="432" text-anchor="middle" class="sm" fill="#dc2626">Fail → Step 3 / 4</text>

<rect x="45" y="545" width="1710" height="300" rx="18" fill="#fff9f5" stroke="#fed7aa" stroke-width="2"/><text x="75" y="578" class="lane" fill="#7c2d12">B · Technology Checkpoint · Step 6 完成后触发（Step 5 主导）</text>
<rect x="105" y="625" width="400" height="145" rx="14" fill="#fff" stroke="#94a3b8" stroke-width="2" filter="url(#s)"/><text x="305" y="660" text-anchor="middle" class="h">Step 5 方向归类</text><text x="305" y="690" text-anchor="middle" class="h">Step 6 大纲确认</text><text x="305" y="728" text-anchor="middle" class="b" fill="#475569">TopicCluster + Outline · Snapshot B0</text>
<rect x="650" y="632" width="270" height="130" rx="16" fill="#ffedd5" stroke="#ea580c" stroke-width="3" filter="url(#s)"/><text x="785" y="670" text-anchor="middle" class="h" fill="#7c2d12">Technology Judge</text><text x="785" y="701" text-anchor="middle" class="b" fill="#7c2d12">Pass / Partial / Fail</text><text x="785" y="730" text-anchor="middle" class="sm" fill="#7c2d12">分类→5 · 大纲→6 · 材料→3/4</text>
<rect x="1040" y="608" width="650" height="190" rx="16" fill="#ffedd5" stroke="#ea580c" stroke-width="2.5" filter="url(#s)"/><text x="1070" y="641" class="h" fill="#7c2d12">Gold Technology Map · T1–T6</text><text x="1070" y="673" class="b" fill="#7c2d12">T1 离线—在线—反馈主轴　T2 三大技术支柱</text><text x="1070" y="704" class="b" fill="#7c2d12">T3 数据增强分类树　　　　T4 模型算法分类树</text><text x="1070" y="735" class="b" fill="#7c2d12">T5 学习机制分类树　　　　T6 技术关系与比较逻辑</text><text x="1070" y="772" class="sm" fill="#7c2d12">判断：方法是否按问题位置归类，并形成层级、功能关系与稳定比较维度</text>
<path d="M505 680H643" stroke="#334155" stroke-width="2.5" marker-end="url(#ad)"/><text x="574" y="670" text-anchor="middle" class="lbl">冻结快照</text><path d="M1040 695H927" stroke="#ea580c" stroke-width="2.4" class="dash" marker-end="url(#ao)"/><text x="984" y="683" text-anchor="middle" class="lbl" fill="#ea580c">隐藏比对</text><path d="M650 740H510" stroke="#dc2626" stroke-width="2.2" class="dash" marker-end="url(#ar)"/><text x="580" y="762" text-anchor="middle" class="sm" fill="#dc2626">Fail → Step 3 / 4 / 5 / 6</text>

<rect x="45" y="875" width="1710" height="300" rx="18" fill="#fcf8ff" stroke="#e9d5ff" stroke-width="2"/><text x="75" y="908" class="lane" fill="#581c87">C · Narrative Checkpoint · Step 8 完成后触发（Step 7 主导）</text>
<rect x="105" y="955" width="400" height="145" rx="14" fill="#fff" stroke="#94a3b8" stroke-width="2" filter="url(#s)"/><text x="305" y="990" text-anchor="middle" class="h">Step 7 章节写作</text><text x="305" y="1020" text-anchor="middle" class="h">Step 8 引用检查</text><text x="305" y="1058" text-anchor="middle" class="b" fill="#475569">Draft + Citation Result · Snapshot C0</text>
<rect x="650" y="962" width="270" height="130" rx="16" fill="#f3e8ff" stroke="#9333ea" stroke-width="3" filter="url(#s)"/><text x="785" y="1000" text-anchor="middle" class="h" fill="#581c87">Narrative Judge</text><text x="785" y="1031" text-anchor="middle" class="b" fill="#581c87">Pass / Partial / Fail</text><text x="785" y="1060" text-anchor="middle" class="sm" fill="#581c87">论证→7 · 引用→8 · 根因可跨级</text>
<rect x="1040" y="938" width="650" height="190" rx="16" fill="#f3e8ff" stroke="#9333ea" stroke-width="2.5" filter="url(#s)"/><text x="1070" y="971" class="h" fill="#581c87">Gold Narrative Map · N1–N6</text><text x="1070" y="1003" class="b" fill="#581c87">N1 问题重要性　　　　　　N2 范式比较与综述缺口</text><text x="1070" y="1034" class="b" fill="#581c87">N3 先建立总架构　　　　　N4 按因果链组织文献</text><text x="1070" y="1065" class="b" fill="#581c87">N5 比较后归纳共同局限　　N6 从局限推导研究方向</text><text x="1070" y="1102" class="sm" fill="#581c87">判断：背景→架构→分类综合→共同局限→Research Gap 是否形成闭合论证</text>
<path d="M505 1010H643" stroke="#334155" stroke-width="2.5" marker-end="url(#ad)"/><text x="574" y="1000" text-anchor="middle" class="lbl">冻结快照</text><path d="M1040 1025H927" stroke="#9333ea" stroke-width="2.4" class="dash" marker-end="url(#ap)"/><text x="984" y="1013" text-anchor="middle" class="lbl" fill="#9333ea">隐藏比对</text><path d="M650 1070H510" stroke="#dc2626" stroke-width="2.2" class="dash" marker-end="url(#ar)"/><text x="580" y="1092" text-anchor="middle" class="sm" fill="#dc2626">Fail → Step 3–8 最早根因</text>

<path d="M785 432V555H305V620" fill="none" stroke="#16a34a" stroke-width="3" marker-end="url(#ag)"/><text x="535" y="535" text-anchor="middle" class="lbl" fill="#16a34a">Pass + Validated Coverage Profile</text>
<path d="M785 762V885H305V950" fill="none" stroke="#16a34a" stroke-width="3" marker-end="url(#ag)"/><text x="535" y="865" text-anchor="middle" class="lbl" fill="#16a34a">Pass + Validated Technology Profile</text>
<path d="M865 167V190H1670V273" fill="none" stroke="#059669" stroke-width="2" class="dash" marker-end="url(#ag)"/><path d="M1670 468V603" fill="none" stroke="#059669" stroke-width="2" class="dash" marker-end="url(#ag)"/><path d="M1670 798V933" fill="none" stroke="#059669" stroke-width="2" class="dash" marker-end="url(#ag)"/><text x="1635" y="205" class="sm" fill="#059669">only Judge reads</text>
<path d="M1500 167V205H785V296" fill="none" stroke="#64748b" stroke-width="1.8" class="dash" marker-end="url(#ad)"/><path d="M1515 167V530H785V626" fill="none" stroke="#64748b" stroke-width="1.8" class="dash" marker-end="url(#ad)"/><path d="M1530 167V860H785V956" fill="none" stroke="#64748b" stroke-width="1.8" class="dash" marker-end="url(#ad)"/>

<rect x="85" y="1222" width="925" height="105" rx="14" fill="#fff7ed" stroke="#fb923c" stroke-width="2"/><text x="110" y="1254" class="h" fill="#9a3412">最早根因回流</text><text x="110" y="1285" class="b" fill="#9a3412">缺文献→Step 3　卡片理解→Step 4　分类→Step 5　大纲→Step 6　论证→Step 7　引用→Step 8</text><text x="110" y="1312" class="sm" fill="#9a3412">Judge 只返回 Element ID、位置、原因、Root Step 与 Repair Goal，不泄漏 Golden 标准答案。</text>
<path d="M785 1092V1210H1180V1235" fill="none" stroke="#16a34a" stroke-width="3" marker-end="url(#ag)"/><text x="960" y="1199" text-anchor="middle" class="lbl" fill="#16a34a">Pass + Final Narrative Decision</text>
<rect x="1050" y="1238" width="330" height="90" rx="16" fill="#f8fafc" stroke="#475569" stroke-width="2.5" filter="url(#s)"/><text x="1215" y="1273" text-anchor="middle" class="h">Step 9 导出</text><text x="1215" y="1304" text-anchor="middle" class="b" fill="#475569">DOCX / Markdown</text>
<rect x="1430" y="1222" width="290" height="105" rx="14" fill="#f8fafc" stroke="#cbd5e1" stroke-width="2"/><text x="1452" y="1253" class="b">判定：Pass / Partial / Fail</text><text x="1452" y="1283" class="b">绿色：验证后正向传递</text><text x="1452" y="1313" class="b">红色虚线：诊断与回流</text>
</svg>
