<svg xmlns="http://www.w3.org/2000/svg" width="1600" height="900" viewBox="0 0 1600 900" role="img" aria-labelledby="title desc">
<title id="title">Red-Team and AutoResearch Database Interaction</title>
<desc id="desc">Simplified interaction among existing AutoResearch database entities, red-team runtime judges, and red-team persistence tables.</desc>
<metadata>Editable source: red-team-database-interaction.drawio</metadata>
<defs>
  <filter id="shadow" x="-20%" y="-20%" width="140%" height="140%"><feDropShadow dx="0" dy="3" stdDeviation="4" flood-color="#0f172a" flood-opacity=".10"/></filter>
  <marker id="dark" markerWidth="10" markerHeight="8" refX="9" refY="4" orient="auto"><path d="M0 0L10 4L0 8Z" fill="#475569"/></marker>
  <marker id="blue" markerWidth="10" markerHeight="8" refX="9" refY="4" orient="auto"><path d="M0 0L10 4L0 8Z" fill="#2563eb"/></marker>
  <marker id="orange" markerWidth="10" markerHeight="8" refX="9" refY="4" orient="auto"><path d="M0 0L10 4L0 8Z" fill="#ea580c"/></marker>
  <marker id="purple" markerWidth="10" markerHeight="8" refX="9" refY="4" orient="auto"><path d="M0 0L10 4L0 8Z" fill="#9333ea"/></marker>
  <marker id="green" markerWidth="10" markerHeight="8" refX="9" refY="4" orient="auto"><path d="M0 0L10 4L0 8Z" fill="#059669"/></marker>
  <marker id="red" markerWidth="10" markerHeight="8" refX="9" refY="4" orient="auto"><path d="M0 0L10 4L0 8Z" fill="#dc2626"/></marker>
  <style>text{font-family:"PingFang SC","Microsoft YaHei","Noto Sans CJK SC",Arial,sans-serif;fill:#0f172a}.title{font-size:28px;font-weight:700}.frame{font-size:19px;font-weight:700}.h{font-size:17px;font-weight:700}.b{font-size:14px}.sm{font-size:12px}.label{font-size:12px;font-weight:600;paint-order:stroke;stroke:#fff;stroke-width:5px;stroke-linejoin:round}.dash{stroke-dasharray:8 6}</style>
</defs>
<rect width="1600" height="900" fill="#ffffff"/>
<text x="800" y="45" text-anchor="middle" class="title">Red-Team × AutoResearch Database · Interaction View</text>

<rect x="35" y="85" width="500" height="690" rx="20" fill="#f8fafc" stroke="#94a3b8" stroke-width="2.5"/>
<text x="65" y="122" class="frame">AutoResearch Database</text>
<text x="65" y="147" class="sm" fill="#64748b">现有11张业务表（仅展示红队直接交互对象）</text>

<rect x="600" y="85" width="390" height="690" rx="20" fill="#fff" stroke="#475569" stroke-width="2.5"/>
<text x="630" y="122" class="frame">Red-Team Runtime</text>
<text x="630" y="147" class="sm" fill="#64748b">运行逻辑详见V1主交互图</text>

<rect x="1055" y="85" width="510" height="690" rx="20" fill="#f7fef9" stroke="#34a853" stroke-width="2.5"/>
<text x="1085" y="122" class="frame" fill="#14532d">Red-Team Data Layer</text>
<text x="1085" y="147" class="sm" fill="#15803d">新增4张持久化表</text>

<!-- interaction arrows -->
<path d="M480 230H640" stroke="#475569" stroke-width="2.2" marker-end="url(#dark)"/>
<text x="560" y="217" text-anchor="middle" class="label">stage / task</text>
<path d="M640 255H480" stroke="#dc2626" stroke-width="2.1" class="dash" marker-end="url(#red)"/>
<text x="560" y="276" text-anchor="middle" class="sm" fill="#dc2626">repair route</text>

<path d="M480 360H640" stroke="#2563eb" stroke-width="2.6" marker-end="url(#blue)"/>
<text x="560" y="348" text-anchor="middle" class="label" fill="#2563eb">A snapshot</text>
<path d="M480 500H640" stroke="#ea580c" stroke-width="2.6" marker-end="url(#orange)"/>
<text x="560" y="488" text-anchor="middle" class="label" fill="#ea580c">B snapshot</text>
<path d="M480 640H640" stroke="#9333ea" stroke-width="2.6" marker-end="url(#purple)"/>
<text x="560" y="628" text-anchor="middle" class="label" fill="#9333ea">C snapshot</text>

<path d="M1295 292V330H940" fill="none" stroke="#059669" stroke-width="2.2" class="dash" marker-end="url(#green)"/>
<path d="M1295 292V470H940" fill="none" stroke="#059669" stroke-width="2.2" class="dash" marker-end="url(#green)"/>
<path d="M1295 292V610H940" fill="none" stroke="#059669" stroke-width="2.2" class="dash" marker-end="url(#green)"/>
<text x="1095" y="316" class="sm" fill="#059669">hidden map elements</text>

<path d="M940 365H1110V480" fill="none" stroke="#475569" stroke-width="2.1" marker-end="url(#dark)"/>
<path d="M940 505H1110V480" fill="none" stroke="#475569" stroke-width="2.1" marker-end="url(#dark)"/>
<path d="M940 645H1110V480" fill="none" stroke="#475569" stroke-width="2.1" marker-end="url(#dark)"/>
<text x="1018" y="463" class="sm" fill="#475569">write decision</text>

<path d="M1295 535V580" stroke="#475569" stroke-width="2.2" marker-end="url(#dark)"/>
<path d="M1110 625H965V242" fill="none" stroke="#475569" stroke-width="2.1" class="dash" marker-end="url(#dark)"/>
<text x="995" y="660" class="sm" fill="#475569">findings → Controller</text>

<!-- left boxes -->
<rect x="85" y="185" width="395" height="90" rx="14" fill="#fff" stroke="#64748b" stroke-width="2" filter="url(#shadow)"/>
<text x="282" y="219" text-anchor="middle" class="h">projects · tasks</text>
<text x="282" y="247" text-anchor="middle" class="b" fill="#475569">项目阶段 · 任务触发与修复</text>

<rect x="85" y="315" width="395" height="90" rx="14" fill="#eff6ff" stroke="#2563eb" stroke-width="2.3" filter="url(#shadow)"/>
<text x="282" y="349" text-anchor="middle" class="h" fill="#1e3a8a">sources · source_cards</text>
<text x="282" y="377" text-anchor="middle" class="b" fill="#1e3a8a">Step 3–4 · Coverage输入</text>

<rect x="85" y="455" width="395" height="90" rx="14" fill="#fff7ed" stroke="#ea580c" stroke-width="2.3" filter="url(#shadow)"/>
<text x="282" y="489" text-anchor="middle" class="h" fill="#7c2d12">directions · outlines · sections</text>
<text x="282" y="517" text-anchor="middle" class="b" fill="#7c2d12">Step 5–6 · Technology输入</text>

<rect x="85" y="595" width="395" height="90" rx="14" fill="#faf5ff" stroke="#9333ea" stroke-width="2.3" filter="url(#shadow)"/>
<text x="282" y="629" text-anchor="middle" class="h" fill="#581c87">sections · citation_issues</text>
<text x="282" y="657" text-anchor="middle" class="b" fill="#581c87">Step 7–8 · Narrative输入</text>

<rect x="160" y="715" width="245" height="38" rx="12" fill="#fff" stroke="#cbd5e1" stroke-width="1.5"/>
<text x="282" y="740" text-anchor="middle" class="h" fill="#64748b">…</text>

<!-- runtime boxes -->
<rect x="640" y="185" width="300" height="105" rx="15" fill="#f8fafc" stroke="#475569" stroke-width="2.5" filter="url(#shadow)"/>
<text x="790" y="221" text-anchor="middle" class="h">Red-Team Controller</text>
<text x="790" y="249" text-anchor="middle" class="b" fill="#475569">触发 · 判定 · 根因回流</text>

<rect x="640" y="320" width="300" height="90" rx="15" fill="#dbeafe" stroke="#2563eb" stroke-width="2.5" filter="url(#shadow)"/>
<text x="790" y="354" text-anchor="middle" class="h" fill="#1e3a8a">A · Coverage Judge</text>
<text x="790" y="382" text-anchor="middle" class="b" fill="#1e3a8a">C1–C6</text>

<rect x="640" y="460" width="300" height="90" rx="15" fill="#ffedd5" stroke="#ea580c" stroke-width="2.5" filter="url(#shadow)"/>
<text x="790" y="494" text-anchor="middle" class="h" fill="#7c2d12">B · Technology Judge</text>
<text x="790" y="522" text-anchor="middle" class="b" fill="#7c2d12">T1–T6</text>

<rect x="640" y="600" width="300" height="90" rx="15" fill="#f3e8ff" stroke="#9333ea" stroke-width="2.5" filter="url(#shadow)"/>
<text x="790" y="634" text-anchor="middle" class="h" fill="#581c87">C · Narrative Judge</text>
<text x="790" y="662" text-anchor="middle" class="b" fill="#581c87">N1–N6</text>

<rect x="715" y="715" width="150" height="38" rx="12" fill="#fff" stroke="#cbd5e1" stroke-width="1.5"/>
<text x="790" y="740" text-anchor="middle" class="h" fill="#64748b">…</text>

<!-- right boxes -->
<rect x="1110" y="180" width="370" height="80" rx="14" fill="#ecfdf5" stroke="#059669" stroke-width="2.2" filter="url(#shadow)"/>
<text x="1295" y="213" text-anchor="middle" class="h" fill="#14532d">golden_benchmarks</text>
<text x="1295" y="239" text-anchor="middle" class="b" fill="#15803d">Golden Case · version · frozen</text>

<rect x="1110" y="290" width="370" height="80" rx="14" fill="#ecfdf5" stroke="#059669" stroke-width="2.2" filter="url(#shadow)"/>
<text x="1295" y="323" text-anchor="middle" class="h" fill="#14532d">golden_map_elements</text>
<text x="1295" y="349" text-anchor="middle" class="b" fill="#15803d">C1–C6 · T1–T6 · N1–N6</text>

<path d="M1295 260V285" stroke="#059669" stroke-width="2.2" marker-end="url(#green)"/>

<rect x="1110" y="455" width="370" height="80" rx="14" fill="#fff" stroke="#475569" stroke-width="2.2" filter="url(#shadow)"/>
<text x="1295" y="488" text-anchor="middle" class="h">red_team_runs</text>
<text x="1295" y="514" text-anchor="middle" class="b" fill="#475569">checkpoint · snapshot · decision · profile</text>

<rect x="1110" y="580" width="370" height="90" rx="14" fill="#fff" stroke="#475569" stroke-width="2.2" filter="url(#shadow)"/>
<text x="1295" y="614" text-anchor="middle" class="h">red_team_findings</text>
<text x="1295" y="640" text-anchor="middle" class="b" fill="#475569">element · status · root_step · repair_goal</text>

<rect x="1215" y="715" width="160" height="38" rx="12" fill="#fff" stroke="#bbf7d0" stroke-width="1.5"/>
<text x="1295" y="740" text-anchor="middle" class="h" fill="#15803d">…</text>

<rect x="35" y="805" width="1530" height="55" rx="14" fill="#fff" stroke="#e2e8f0" stroke-width="1.5"/>
<text x="70" y="839" class="b" fill="#475569">蓝/橙/紫：A/B/C冻结产物　　绿色虚线：隐藏Golden Map　　灰色：判定持久化　　红色虚线：修复任务回流　　“…”：未新增或非关键关系</text>
</svg>
